<svg width="217" height="98" viewBox="0 0 217 98" fill="none" xmlns="http://www.w3.org/2000/svg">
<g clip-path="url(#clip0_9_16403)">
<path d="M26.2251 47.1776L18.5045 72.6298L10.7838 47.1776C10.7838 47.1776 9.25224 41.6628 0 41.6628L12.987 78.3186C12.987 78.3186 14.3349 81.1364 18.4996 81.1364C22.6644 81.1364 24.0123 78.3186 24.0123 78.3186L36.9993 41.6628C27.747 41.6628 26.2155 47.1776 26.2155 47.1776H26.2251Z" fill="white"/>
<path d="M76.5593 41.6001H72.2013V54.8917C70.5538 53.3885 68.5825 52.5137 66.4567 52.5137H63.9878C58.2335 52.5137 53.5712 58.9323 53.5712 66.8541C53.5712 74.7759 58.2335 81.1945 63.9878 81.1945H66.4567C68.7854 81.1945 70.9306 80.1408 72.6651 78.367C73.2594 79.353 74.3658 80.0152 75.6316 80.0152H80.0427V44.9592C80.0427 43.1033 78.4822 41.6001 76.5544 41.6001H76.5593ZM72.2061 73.959C71.3316 74.655 70.317 75.061 69.2299 75.061H67.8191C64.5289 75.061 61.8571 71.3877 61.8571 66.8541C61.8571 62.3205 64.5241 58.6471 67.8191 58.6471H69.2299C70.317 58.6471 71.3316 59.0531 72.2061 59.7491V73.9542V73.959Z" fill="white"/>
<path d="M44.7006 52.5717H41.1254V76.9316C41.1254 79.2515 43.0048 81.1317 45.3239 81.1317H48.9668V56.8347C48.9668 54.476 47.0584 52.5669 44.7006 52.5669V52.5717Z" fill="white"/>
<path d="M45.0485 41.6001C42.5458 41.6001 40.5166 43.6301 40.5166 46.1337C40.5166 48.6374 42.5458 50.6674 45.0485 50.6674C47.5512 50.6674 49.5804 48.6374 49.5804 46.1337C49.5804 43.6301 47.5512 41.6001 45.0485 41.6001Z" fill="white"/>
<path d="M106.495 56.5979C104.408 53.9106 101.33 52.5669 97.2669 52.5669C95.2328 52.5669 93.4307 52.8907 91.8653 53.5336C90.2951 54.1764 88.9664 55.1044 87.8793 56.3224C86.7923 57.5355 85.9613 58.9904 85.3911 60.682C84.821 62.3737 84.536 64.2683 84.536 66.366C84.536 76.2259 88.9229 81.1559 97.6969 81.1559C100.514 81.1559 102.939 80.4019 104.973 78.8939C107.688 76.8639 106.297 72.4366 102.944 72.4366H102.084C101.833 73.3936 101.272 74.1379 100.398 74.6696C99.5232 75.2061 98.5182 75.4719 97.3732 75.4719C95.6628 75.4719 94.2762 74.8629 93.2278 73.6498C92.1745 72.4366 91.5947 70.7981 91.4884 68.7391H109.626C109.626 63.3307 108.582 59.2852 106.495 56.5979ZM91.701 64.2151C91.8411 62.3398 92.4257 60.8753 93.4403 59.8265C94.455 58.7777 95.6628 58.2509 97.0494 58.2509C97.7259 58.2509 98.3878 58.3717 99.0303 58.6085C99.6729 58.8502 100.243 59.2175 100.741 59.7105C101.238 60.2083 101.639 60.8318 101.944 61.5858C102.248 62.3398 102.417 63.2147 102.451 64.2055H91.6962L91.701 64.2151Z" fill="white"/>
<path d="M152.79 72.4415H151.93C151.679 73.3985 151.118 74.1428 150.244 74.6745C149.369 75.211 148.364 75.4768 147.219 75.4768C145.509 75.4768 144.122 74.8678 143.074 73.6546C142.021 72.4415 141.441 70.803 141.335 68.744H159.472C159.472 63.3355 158.428 59.2901 156.341 56.6028C154.254 53.9154 151.176 52.5718 147.113 52.5718C145.079 52.5718 143.277 52.8956 141.711 53.5384C140.141 54.1813 138.813 55.1093 137.725 56.3273C136.638 57.5404 135.807 58.9952 135.237 60.6869C134.667 62.3785 134.382 64.2732 134.382 66.3709C134.382 76.2308 138.769 81.1608 147.543 81.1608C150.36 81.1608 152.785 80.4068 154.819 78.8988C157.534 76.8688 156.143 72.4415 152.79 72.4415ZM143.286 59.8314C144.301 58.7826 145.509 58.2557 146.896 58.2557C147.572 58.2557 148.234 58.3766 148.876 58.6134C149.519 58.8551 150.089 59.2224 150.587 59.7154C151.084 60.2132 151.485 60.8367 151.79 61.5907C152.094 62.3447 152.263 63.2195 152.297 64.2104H141.542C141.682 62.335 142.267 60.8706 143.282 59.8217L143.286 59.8314Z" fill="white"/>
<path d="M130.367 53.5287C127.961 52.7457 125.42 52.8037 122.748 53.7027C122.139 53.9057 121.564 54.128 121.018 54.3697C120.419 53.3063 119.284 52.5862 117.979 52.5862H113.621V77.7145C113.621 79.6092 115.158 81.1462 117.052 81.1462H121.463V61.2136C122.11 60.276 123.038 59.5993 124.251 59.1885C125.333 58.826 126.372 58.7535 127.372 58.9855C128.372 59.2126 129.14 59.7395 129.681 60.566L130.498 60.2905C133.677 59.2223 133.585 54.5823 130.362 53.5238L130.367 53.5287Z" fill="white"/>
<path d="M167.014 80.5227C166.608 80.9287 166.115 81.1366 165.54 81.1366C164.965 81.1366 164.472 80.9336 164.071 80.5227C163.67 80.1167 163.467 79.6238 163.467 79.0486C163.467 78.4734 163.67 77.9853 164.076 77.5793C164.482 77.1733 164.97 76.9751 165.54 76.9751C166.11 76.9751 166.608 77.1781 167.014 77.5793C167.42 77.9804 167.623 78.4734 167.623 79.0486C167.623 79.6238 167.42 80.1167 167.014 80.5227ZM164.279 77.7823C163.931 78.1303 163.757 78.5556 163.757 79.0486C163.757 79.5416 163.931 79.9717 164.274 80.3246C164.622 80.6774 165.043 80.8514 165.54 80.8514C166.038 80.8514 166.458 80.6774 166.806 80.3246C167.154 79.9717 167.328 79.5464 167.328 79.0486C167.328 78.5508 167.154 78.1303 166.806 77.7823C166.458 77.4294 166.033 77.2554 165.54 77.2554C165.047 77.2554 164.627 77.4294 164.279 77.7823ZM165.502 77.8983C165.787 77.8983 165.994 77.9273 166.125 77.9804C166.362 78.0771 166.477 78.2704 166.477 78.5604C166.477 78.7634 166.405 78.9133 166.255 79.0099C166.178 79.0631 166.067 79.0969 165.927 79.1211C166.105 79.1501 166.236 79.2226 166.318 79.3434C166.4 79.4643 166.444 79.5802 166.444 79.6962V79.8654C166.444 79.9186 166.444 79.9766 166.448 80.0346C166.448 80.0926 166.458 80.1361 166.468 80.1554L166.482 80.1844H166.105V80.1602C166.105 80.1602 166.096 80.1457 166.096 80.1361L166.086 80.0636V79.8847C166.086 79.6237 166.014 79.4449 165.869 79.3627C165.782 79.3144 165.637 79.2903 165.419 79.2903H165.101V80.1892H164.699V77.9079H165.497L165.502 77.8983ZM165.936 78.2608C165.835 78.2028 165.671 78.1738 165.448 78.1738H165.105V79.0003H165.468C165.637 79.0003 165.767 78.9809 165.849 78.9471C166.009 78.8843 166.086 78.7634 166.086 78.5894C166.086 78.4251 166.038 78.3139 165.936 78.2559V78.2608Z" fill="white"/>
<path d="M188.804 40.9429C185.856 35.5876 181.426 31.1554 176.073 28.2071C171.483 25.6793 166.212 24.2341 160.607 24.2341V32.1801C173.966 32.1801 184.832 43.0502 184.832 56.4142H192.775C192.775 50.8125 191.33 45.5393 188.804 40.9429Z" fill="white"/>
<path d="M188.804 15.4714C191.751 20.8267 196.181 25.2588 201.534 28.2071C206.124 30.735 211.396 32.1801 217 32.1801V24.2342C203.641 24.2342 192.775 13.3641 192.775 0H184.832C184.832 5.6018 186.277 10.8749 188.804 15.4714Z" fill="white"/>
<path d="M200.694 28.7051C196.002 31.4794 192.079 35.404 189.306 40.102C189.388 40.247 189.48 40.3823 189.557 40.5273C191.442 43.9541 192.688 47.7048 193.263 51.5666C195.196 42.0837 202.684 34.6017 212.169 32.6732C208.303 32.0981 204.549 30.8559 201.119 28.9661C200.974 28.8839 200.839 28.7921 200.694 28.7099V28.7051Z" fill="white"/>
<path d="M176.913 27.7044C181.605 24.9301 185.528 21.0055 188.306 16.3123C188.224 16.1673 188.132 16.032 188.05 15.887C186.161 12.4554 184.919 8.69989 184.344 4.83325C182.416 14.3162 174.937 21.8078 165.458 23.746C169.318 24.3211 173.068 25.5633 176.488 27.4531C176.633 27.5304 176.768 27.6271 176.913 27.7044Z" fill="white"/>
<path d="M30.3077 93.0266C30.1338 92.7994 29.9164 92.6303 29.6506 92.5046C29.3849 92.3838 29.1095 92.3209 28.8245 92.3209C28.4766 92.3209 28.1626 92.3838 27.8823 92.5143C27.6021 92.6448 27.3605 92.8236 27.1624 93.0508C26.9595 93.2779 26.8049 93.5389 26.6986 93.8483C26.5875 94.1528 26.5344 94.4766 26.5344 94.8246C26.5344 95.1484 26.5875 95.4529 26.689 95.7429C26.7953 96.0329 26.945 96.2842 27.1383 96.5066C27.3364 96.7289 27.5731 96.8981 27.8582 97.0286C28.1432 97.1542 28.4621 97.2219 28.8196 97.2219C29.1772 97.2219 29.4815 97.1494 29.7473 97.0044C30.013 96.8594 30.2401 96.6564 30.4237 96.4002L31.1291 96.9271C31.0856 96.9899 31.0035 97.0817 30.8875 97.2026C30.7715 97.3234 30.6218 97.4394 30.4285 97.5602C30.2401 97.6762 30.0082 97.7826 29.7376 97.8744C29.4671 97.9662 29.1578 98.0097 28.8051 98.0097C28.3172 98.0097 27.8775 97.9179 27.491 97.7294C27.0996 97.5457 26.7663 97.2992 26.4909 96.9996C26.2155 96.6999 26.0077 96.3567 25.8628 95.9797C25.7178 95.6027 25.6454 95.2161 25.6454 94.8294C25.6454 94.3558 25.7227 93.9159 25.8821 93.5148C26.0367 93.1136 26.259 92.7656 26.5392 92.4708C26.8194 92.1759 27.1576 91.9488 27.549 91.7893C27.9403 91.6298 28.3751 91.5476 28.8486 91.5476C29.2545 91.5476 29.6506 91.6249 30.042 91.7844C30.4333 91.9391 30.7522 92.1808 30.9986 92.5046L30.3029 93.0314L30.3077 93.0266Z" fill="white"/>
<path d="M34.3951 91.6975H35.231V97.0625H38.0526V97.8455H34.4V91.6975H34.3951Z" fill="white"/>
<path d="M41.8984 90.0977H43.0096L41.7148 91.3495H40.9949L41.8984 90.0977ZM41.1543 91.6975H41.9902V97.8454H41.1543V91.6975Z" fill="white"/>
<path d="M45.8215 91.6975H46.9134L50.3003 96.7483H50.3148V91.6975H51.1506V97.8455H50.0925L46.6767 92.7947H46.6574V97.8455H45.8215V91.6975Z" fill="white"/>
<path d="M54.9868 91.6975H55.8226V97.8455H54.9868V91.6975Z" fill="white"/>
<path d="M63.9298 93.0266C63.7559 92.7994 63.5385 92.6303 63.2728 92.5046C63.007 92.3789 62.7316 92.3209 62.4466 92.3209C62.0987 92.3209 61.7847 92.3838 61.5044 92.5143C61.2242 92.6448 60.9826 92.8236 60.7845 93.0508C60.5816 93.2779 60.427 93.5389 60.3207 93.8483C60.2096 94.1528 60.1565 94.4766 60.1565 94.8246C60.1565 95.1484 60.2096 95.4529 60.3111 95.7429C60.4174 96.0329 60.5671 96.2842 60.7604 96.5066C60.9585 96.7289 61.1952 96.8981 61.4803 97.0286C61.7653 97.1542 62.0842 97.2219 62.4417 97.2219C62.7993 97.2219 63.1036 97.1494 63.3694 97.0044C63.6351 96.8594 63.8622 96.6564 64.0458 96.4002L64.7512 96.9271C64.7077 96.9899 64.6256 97.0817 64.5096 97.2026C64.3936 97.3234 64.2439 97.4394 64.0506 97.5602C63.8622 97.6762 63.6303 97.7826 63.3597 97.8744C63.0892 97.9662 62.7799 98.0097 62.4272 98.0097C61.9393 98.0097 61.4996 97.9179 61.1131 97.7294C60.7217 97.5457 60.3884 97.2992 60.113 96.9996C59.8376 96.6999 59.6298 96.3567 59.4849 95.9797C59.3399 95.6027 59.2675 95.2161 59.2675 94.8294C59.2675 94.3558 59.3448 93.9159 59.5042 93.5148C59.6588 93.1136 59.8811 92.7656 60.1613 92.4708C60.4415 92.1759 60.7797 91.9488 61.1711 91.7893C61.5624 91.6298 61.9972 91.5476 62.4707 91.5476C62.8766 91.5476 63.2728 91.6249 63.6641 91.7844C64.0554 91.9391 64.3743 92.1808 64.6207 92.5046L63.925 93.0314L63.9298 93.0266Z" fill="white"/>
<path d="M69.945 91.6975H70.6987L73.327 97.8455H72.3559L71.7375 96.3278H68.8144L68.2057 97.8455H67.2345L69.9402 91.6975H69.945ZM71.4379 95.5931L70.2929 92.7705H70.2735L69.1091 95.5931H71.4331H71.4379Z" fill="white"/>
<path d="M80.9124 91.6975H83.0576C83.4924 91.6975 83.8741 91.7458 84.1978 91.8473C84.5215 91.944 84.8065 92.0745 85.0481 92.2437C85.2897 92.408 85.4878 92.5965 85.6472 92.8092C85.8067 93.0267 85.9323 93.2442 86.0241 93.4713C86.1159 93.6985 86.1835 93.9208 86.2222 94.148C86.2608 94.3752 86.285 94.583 86.285 94.7715C86.285 95.163 86.2125 95.5448 86.0675 95.9121C85.9226 96.2795 85.71 96.6033 85.425 96.8933C85.1447 97.1785 84.792 97.4105 84.3717 97.5845C83.9514 97.7585 83.4682 97.8455 82.9174 97.8455H80.9124V91.6975ZM81.7434 97.0625H82.7918C83.1445 97.0625 83.4779 97.0141 83.7919 96.9175C84.106 96.8208 84.3862 96.6758 84.6181 96.4873C84.8549 96.2988 85.0433 96.0571 85.1834 95.772C85.3187 95.4868 85.3911 95.1533 85.3911 94.7667C85.3911 94.5733 85.3573 94.3413 85.2945 94.0755C85.2317 93.8097 85.1109 93.5583 84.9322 93.3263C84.7582 93.0895 84.5118 92.8865 84.1978 92.7222C83.8837 92.5578 83.4827 92.4757 82.9851 92.4757H81.7337V97.0576L81.7434 97.0625Z" fill="white"/>
<path d="M89.7346 91.6975H93.7012V92.4805H90.5705V94.3123H93.4838V95.0953H90.5705V97.0673H93.8607V97.8503H89.7395V91.7023L89.7346 91.6975Z" fill="white"/>
<path d="M104.78 98C104.311 98 103.881 97.9179 103.49 97.7535C103.094 97.5892 102.76 97.362 102.48 97.072C102.2 96.782 101.978 96.4389 101.823 96.0474C101.663 95.6559 101.581 95.2257 101.581 94.7714C101.581 94.317 101.659 93.8917 101.823 93.4954C101.982 93.1039 102.2 92.7607 102.48 92.4707C102.76 92.1807 103.098 91.9536 103.49 91.7892C103.881 91.6249 104.311 91.5427 104.78 91.5427C105.248 91.5427 105.678 91.6249 106.075 91.7892C106.466 91.9536 106.804 92.1807 107.084 92.4707C107.365 92.7607 107.587 93.1039 107.746 93.4954C107.906 93.8917 107.983 94.317 107.983 94.7714C107.983 95.2257 107.906 95.6559 107.746 96.0474C107.587 96.4389 107.365 96.782 107.084 97.072C106.804 97.362 106.466 97.5892 106.075 97.7535C105.683 97.9179 105.248 98 104.78 98ZM104.78 97.217C105.132 97.217 105.451 97.1542 105.736 97.0237C106.021 96.8932 106.263 96.7192 106.466 96.4969C106.669 96.2745 106.823 96.0184 106.935 95.7187C107.046 95.419 107.099 95.1049 107.099 94.7665C107.099 94.4282 107.041 94.114 106.935 93.8144C106.828 93.5147 106.669 93.2586 106.466 93.0362C106.263 92.8187 106.021 92.6399 105.736 92.5094C105.451 92.3789 105.132 92.3161 104.78 92.3161C104.427 92.3161 104.108 92.3789 103.828 92.5094C103.543 92.6399 103.301 92.8139 103.098 93.0362C102.896 93.2586 102.741 93.5147 102.63 93.8144C102.519 94.114 102.466 94.4282 102.466 94.7665C102.466 95.1049 102.519 95.419 102.63 95.7187C102.741 96.0184 102.896 96.2745 103.098 96.4969C103.301 96.7192 103.543 96.8932 103.828 97.0237C104.108 97.1542 104.427 97.217 104.78 97.217Z" fill="white"/>
<path d="M113.356 91.6975H114.191V96.091C114.191 96.4776 114.129 96.7966 114.008 97.0431C113.887 97.2896 113.732 97.483 113.554 97.6231C113.37 97.7681 113.177 97.8648 112.969 97.918C112.761 97.9711 112.568 98.0001 112.394 98.0001C111.959 98.0001 111.592 97.889 111.297 97.6666C111.003 97.4443 110.809 97.106 110.727 96.6565L111.544 96.4728C111.587 96.7048 111.689 96.8885 111.829 97.019C111.974 97.1543 112.162 97.222 112.394 97.222C112.602 97.222 112.766 97.1833 112.892 97.1011C113.017 97.019 113.114 96.9126 113.182 96.7821C113.249 96.6516 113.298 96.5018 113.317 96.3326C113.341 96.1635 113.351 95.9943 113.351 95.8203V91.6975H113.356Z" fill="white"/>
<path d="M120.695 98C120.226 98 119.796 97.9179 119.405 97.7535C119.008 97.5892 118.675 97.362 118.395 97.072C118.115 96.782 117.892 96.4389 117.738 96.0474C117.578 95.6559 117.496 95.2257 117.496 94.7714C117.496 94.317 117.573 93.8917 117.738 93.4954C117.897 93.1039 118.115 92.7607 118.395 92.4707C118.675 92.1807 119.013 91.9536 119.405 91.7892C119.796 91.6249 120.226 91.5427 120.695 91.5427C121.163 91.5427 121.593 91.6249 121.989 91.7892C122.381 91.9536 122.719 92.1807 122.999 92.4707C123.279 92.7607 123.502 93.1039 123.661 93.4954C123.821 93.8917 123.898 94.317 123.898 94.7714C123.898 95.2257 123.821 95.6559 123.661 96.0474C123.502 96.4389 123.279 96.782 122.999 97.072C122.719 97.362 122.381 97.5892 121.989 97.7535C121.598 97.9179 121.163 98 120.695 98ZM120.695 97.217C121.047 97.217 121.366 97.1542 121.651 97.0237C121.936 96.8932 122.178 96.7192 122.381 96.4969C122.584 96.2745 122.738 96.0184 122.849 95.7187C122.961 95.419 123.014 95.1049 123.014 94.7665C123.014 94.4282 122.956 94.114 122.849 93.8144C122.743 93.5147 122.584 93.2586 122.381 93.0362C122.178 92.8187 121.936 92.6399 121.651 92.5094C121.366 92.3789 121.047 92.3161 120.695 92.3161C120.342 92.3161 120.023 92.3789 119.743 92.5094C119.458 92.6399 119.216 92.8139 119.013 93.0362C118.81 93.2586 118.656 93.5147 118.545 93.8144C118.433 94.114 118.38 94.4282 118.38 94.7665C118.38 95.1049 118.433 95.419 118.545 95.7187C118.656 96.0184 118.81 96.2745 119.013 96.4969C119.216 96.7192 119.458 96.8932 119.743 97.0237C120.023 97.1542 120.342 97.217 120.695 97.217Z" fill="white"/>
<path d="M127.531 96.5597C127.681 96.7869 127.874 96.9512 128.111 97.0576C128.348 97.1639 128.584 97.2219 128.836 97.2219C128.976 97.2219 129.116 97.1977 129.261 97.1591C129.406 97.1156 129.536 97.0479 129.657 96.9657C129.773 96.8787 129.874 96.7724 129.947 96.6467C130.024 96.5162 130.058 96.3712 130.058 96.2021C130.058 95.9652 129.981 95.7816 129.831 95.6607C129.681 95.5351 129.493 95.4336 129.27 95.3466C129.048 95.2596 128.802 95.1822 128.541 95.1049C128.28 95.0276 128.034 94.9164 127.811 94.7811C127.589 94.6409 127.401 94.4573 127.251 94.2204C127.101 93.9836 127.024 93.6694 127.024 93.2683C127.024 93.0894 127.062 92.8961 127.14 92.6931C127.217 92.4901 127.343 92.3064 127.512 92.1373C127.681 91.9681 127.893 91.8328 128.159 91.7168C128.425 91.6056 128.739 91.5476 129.111 91.5476C129.449 91.5476 129.768 91.5911 130.077 91.6829C130.382 91.7748 130.652 91.9633 130.884 92.2484L130.208 92.8671C130.101 92.7028 129.956 92.5723 129.763 92.4756C129.57 92.3789 129.353 92.3306 129.111 92.3306C128.869 92.3306 128.686 92.3596 128.536 92.4224C128.381 92.4853 128.261 92.5626 128.169 92.6593C128.077 92.7559 128.009 92.8574 127.976 92.9686C127.942 93.0798 127.918 93.1813 127.918 93.2731C127.918 93.5341 127.995 93.7323 128.145 93.8724C128.294 94.0126 128.483 94.1238 128.705 94.2108C128.927 94.2978 129.169 94.3751 129.435 94.4476C129.7 94.5153 129.942 94.6119 130.164 94.7376C130.387 94.8632 130.575 95.0324 130.725 95.2402C130.874 95.4481 130.952 95.7429 130.952 96.1102C130.952 96.4051 130.894 96.6709 130.783 96.9077C130.672 97.1446 130.517 97.3427 130.329 97.5071C130.14 97.6714 129.913 97.7922 129.652 97.8792C129.391 97.9662 129.116 98.0097 128.816 98.0097C128.425 98.0097 128.048 97.9372 127.695 97.8019C127.343 97.6666 127.062 97.4491 126.855 97.1591L127.541 96.5694L127.531 96.5597Z" fill="white"/>
</g>
<defs>
<clipPath id="clip0_9_16403">
<rect width="217" height="98" fill="white"/>
</clipPath>
</defs>
</svg>
